<?xml version="1.0" standalone="no"?>
<!DOCTYPE svg PUBLIC "-//W3C//DTD SVG 20010904//EN"
 "http://www.w3.org/TR/2001/REC-SVG-20010904/DTD/svg10.dtd">
<svg version="1.0" xmlns="http://www.w3.org/2000/svg"
 width="443.000000pt" height="275.000000pt" viewBox="0 0 443.000000 275.000000"
 preserveAspectRatio="xMidYMid meet">

<g transform="translate(0.000000,275.000000) scale(0.100000,-0.100000)"
fill="#000000" stroke="none">
<path d="M1120 2181 c-86 -28 -159 -90 -201 -171 l-24 -45 -3 -685 c-2 -477 0
-697 8 -725 38 -137 200 -223 324 -171 46 19 104 72 129 120 21 40 22 51 25
439 l3 397 22 0 c18 0 55 -43 172 -201 82 -110 164 -213 182 -229 66 -58 157
-59 231 -3 18 14 65 68 104 122 39 53 92 124 117 158 25 35 49 63 54 63 4 0 7
-99 7 -220 l0 -220 -55 6 c-174 21 -298 -128 -241 -288 8 -21 78 -124 156
-228 l143 -191 56 7 c31 3 60 10 64 14 5 4 -56 95 -135 201 -79 107 -152 205
-161 219 -17 25 -22 75 -11 105 9 22 57 45 96 45 29 0 44 -12 118 -90 85 -90
110 -106 110 -72 0 9 0 234 0 500 0 300 3 497 10 521 13 50 48 87 98 102 35
10 45 9 78 -7 21 -11 49 -34 61 -53 23 -34 23 -37 23 -391 0 -380 1 -387 47
-378 15 3 19 17 24 93 7 110 19 140 63 161 47 23 97 12 130 -27 25 -29 26 -37
26 -149 0 -95 3 -120 16 -131 11 -9 20 -10 32 -2 13 7 18 31 22 93 5 74 9 85
33 106 41 35 100 33 138 -5 28 -29 29 -31 29 -138 0 -112 7 -133 41 -133 22 0
29 20 29 81 0 78 29 118 86 119 16 0 39 -6 50 -14 18 -14 19 -28 18 -253 0
-254 -12 -337 -64 -457 -11 -27 -19 -50 -17 -52 2 -2 30 -5 62 -6 l59 -3 22
55 c40 98 55 204 61 410 6 215 -5 329 -35 369 -39 53 -68 66 -148 66 -73 1
-75 2 -94 32 -38 62 -100 85 -196 72 -58 -8 -60 -7 -82 22 -27 34 -82 64 -134
74 l-37 7 -3 362 c-3 360 -3 361 -28 411 -35 72 -117 149 -187 175 -79 30
-178 24 -257 -14 -87 -43 -117 -79 -388 -479 -129 -191 -120 -191 -245 -7
-268 390 -312 444 -410 491 -50 24 -176 36 -223 20z"/>
</g>
</svg>
